# xmcd
#
# Track frame offsets: 
#        150
#        18340
#        34560
#        52255
#        64487
#        81477
#        117535
#        149810
#        165505
#        181705
#        206970
#        237965
#        280675
#        315372
#
# Disc length: 4402 seconds
#
# Revision: 3
# Processed by: cddbd v1.5.2PL0 Copyright (c) Steve Scherf et al.
# Submitted via: ExactAudioCopy v1.1
#
DISCID=cf11300e
DTITLE=Various Artist - 100x100 EuroTrance
DYEAR=1999
DGENRE=Trance
TTITLE0=Rollergirl - Dear Jessie
TTITLE1=Double Face - The Joy Of Life
TTITLE2=Nalin and Kane - Open Your Eyes
TTITLE3=Lost Witness - Happiness Happening
TTITLE4=The Oh - Wont You Show Me The Way
TTITLE5=BBE - Seven Days And One Week RMX 99
TTITLE6=Matt Darey - Liberation
TTITLE7=Dj Visage - The Return
TTITLE8=Gouryella - Gouryella
TTITLE9=Allegro - Moments In Love
TTITLE10=Secilia - As Good As You
TTITLE11=The Muses Rapt - Spiritual Healing
TTITLE12=Armin - Communication
TTITLE13=Southside Spinners - Luvstruck
EXTD=
EXTT0=
EXTT1=
EXTT2=
EXTT3=
EXTT4=
EXTT5=
EXTT6=
EXTT7=
EXTT8=
EXTT9=
EXTT10=
EXTT11=
EXTT12=
EXTT13=
PLAYORDER=
